PathFileType	4	(X/Y/Z)	/Users/itak/Documents/Research/Walk-IL/dataset/trc/00387_00012.trc
DataRate	CameraRate	NumFrames	NumMarkers	Units	OrigDataRate	OrigDataStartFrame	OrigNumFrames
100.000000	100.000000	4	56	mm	100.000000	148	593
Frame#	Time	RPSI			LPSI			L3			STRN			T10			C7			CLAV			RBAK			LBAK			LSHO			LUPA			LAEL			LAOL			LWTS			LWPS			LFRA			LIFD			LHPS			LHTS			RSHO			RUPA			RAEL			RAOL			RWTS			RWPS			RFRA			RIFD			RHTS			RHPS			RBHD			LFHD			RFHD			LBHD			RASI			LKNE			LTHI			LANK			LTIP			LTOE			LMT1			LMT5			LHEE			RKNE			RANK			RTIP			RTOE			RMT1			RMT5			RHEE			LASI			LHIP			RHIP			RTHI			*53			*54			*55			
		X1	Y1	Z1	X2	Y2	Z2	X3	Y3	Z3	X4	Y4	Z4	X5	Y5	Z5	X6	Y6	Z6	X7	Y7	Z7	X8	Y8	Z8	X9	Y9	Z9	X10	Y10	Z10	X11	Y11	Z11	X12	Y12	Z12	X13	Y13	Z13	X14	Y14	Z14	X15	Y15	Z15	X16	Y16	Z16	X17	Y17	Z17	X18	Y18	Z18	X19	Y19	Z19	X20	Y20	Z20	X21	Y21	Z21	X22	Y22	Z22	X23	Y23	Z23	X24	Y24	Z24	X25	Y25	Z25	X26	Y26	Z26	X27	Y27	Z27	X28	Y28	Z28	X29	Y29	Z29	X30	Y30	Z30	X31	Y31	Z31	X32	Y32	Z32	X33	Y33	Z33	X34	Y34	Z34	X35	Y35	Z35	X36	Y36	Z36	X37	Y37	Z37	X38	Y38	Z38	X39	Y39	Z39	X40	Y40	Z40	X41	Y41	Z41	X42	Y42	Z42	X43	Y43	Z43	X44	Y44	Z44	X45	Y45	Z45	X46	Y46	Z46	X47	Y47	Z47	X48	Y48	Z48	X49	Y49	Z49	X50	Y50	Z50	X51	Y51	Z51	X52	Y52	Z52	X53	Y53	Z53	X54	Y54	Z54	X55	Y55	Z55	X56	Y56	Z56	

149	1.48	1008.426452636719	977.8995361328125	-4.609686374664307	1002.893676757812	970.5203247070312	-136.2527008056641	1008.607421875	1046.578491210938	-68.90610504150391	1241.88916015625	1211.572021484375	-63.92919921875	997.7835693359375	1149.632202148438	-75.96959686279297	1026.33935546875	1400.243286132812	-89.63609313964844	1184.127563476562	1328.0830078125	-71.316162109375	984.8218994140625	1254.177490234375	-20.21082305908203	1018.47412109375	1359.718017578125	-192.0242309570312	1108.39501953125	1376.45703125	-237.7549285888672	1091.725830078125	1257.548828125	-306.1222839355469	1123.683227539062	1060.5859375	-322.9373168945312	1059.341918945312	1038.38818359375	-270.6381530761719	1222.95654296875	856.9456787109375	-256.7439270019531	1183.218872070312	836.334228515625	-326.18798828125	1148.088134765625	957.3187866210938	-325.41796875	1238.188598632812	679.196044921875	-254.3991546630859	1203.291748046875	753.4007568359375	-313.5138244628906	1251.449340820312	762.1917114257812	-271.6016845703125	1074.663208007812	1385.540893554688	73.73190307617188	1059.522094726562	1320.692749023438	133.5058288574219	1080.17529296875	1060.09130859375	178.4022216796875	1055.765747070312	1045.417602539062	88.40541076660156	1219.734252929688	854.824462890625	137.7040252685547	1187.156860351562	842.2001342773438	203.2217559814453	1112.294921875	996.4019775390625	192.9552307128906	1235.594604492188	683.0714111328125	144.6548309326172	1249.722900390625	753.4862670898438	156.9151000976562	1198.810913085938	753.5020751953125	203.5568084716797	1041.65380859375	1588.480102539062	-26.94570922851562	1225.4677734375	1599.566162109375	-102.0363922119141	1170.636596679688	1607.131225585938	8.831368446350098	1098.345092773438	1576.53515625	-176.4898071289062	1224.689819335938	968.2565307617188	55.45588302612305	1129.740966796875	466.9752502441406	-233.326416015625	1126.69970703125	609.685302734375	-242.1125335693359	1024.06591796875	31.66657829284668	-198.8534545898438	1072.304931640625	238.1103210449219	-228.6782989501953	1237.274169921875	32.05805206298828	-130.8531341552734	1156.431274414062	34.12647247314453	-102.2925186157227	1151.2734375	28.11620330810547	-207.7063293457031	984.7708740234375	29.93668365478516	-143.0243835449219	1127.742797851562	467.7694702148438	83.83157348632812	1064.602783203125	46.95773696899414	51.35442352294922	1131.4375	341.3285827636719	66.38176727294922	1237.069458007812	24.82145309448242	-27.92805862426758	1158.085693359375	32.12164688110352	-50.65453338623047	1149.120971679688	37.96030807495117	48.05488586425781	987.1004028320312	34.01413345336914	4.544134616851807	1210.388671875	961.3095092773438	-208.0796203613281	1096.832641601562	957.4334106445312	-249.4660797119141	1091.252563476562	955.159912109375	110.8428421020508	1166.45556640625	733.5473022460938	111.3883666992188	nan	nan	nan	nan	nan	nan	nan	nan	nan	
150	1.49	1007.247436523438	977.7256469726562	-4.241706371307373	1002.085998535156	970.2342529296875	-135.8195953369141	1007.120971679688	1046.857421875	-68.52934265136719	1241.04638671875	1211.78759765625	-63.12046813964844	996.8373413085938	1149.957641601562	-75.47718811035156	1025.556518554688	1400.49560546875	-88.97518157958984	1183.230590820312	1328.27197265625	-70.54269409179688	983.9266357421875	1254.434814453125	-19.54547500610352	1017.717224121094	1359.965698242188	-191.3711395263672	1107.65234375	1376.616455078125	-237.0253143310547	1091.045654296875	1257.756225585938	-305.4046936035156	1122.985717773438	1060.847045898438	-322.3700256347656	1058.659423828125	1038.539306640625	-270.1167907714844	1222.571899414062	857.3555908203125	-256.5536804199219	1182.628784179688	836.6240844726562	-325.817138671875	1147.440185546875	957.61865234375	-324.9198608398438	1238.117065429688	679.6986694335938	-254.3974151611328	1202.889038085938	753.7393798828125	-313.2799987792969	1251.123168945312	762.5477294921875	-271.4722595214844	1073.708618164062	1385.769287109375	74.40851593017578	1058.54541015625	1320.909790039062	134.1833801269531	1079.168090820312	1060.3046875	179.0800018310547	1054.444458007812	1045.62646484375	89.10157775878906	1219.379150390625	855.573486328125	137.6925201416016	1187.026000976562	842.7164916992188	203.2716827392578	1111.518188476562	996.607177734375	193.4593048095703	1236.148803710938	683.9093017578125	144.4407043457031	1250.017822265625	754.3958129882812	156.7369995117188	1199.186401367188	754.0906372070312	203.5123748779297	1041.217041015625	1588.868896484375	-26.30807495117188	1224.864135742188	1599.485961914062	-101.9542465209961	1170.475463867188	1607.329833984375	8.786835670471191	1097.4697265625	1576.541870117188	-175.9801635742188	1223.630981445312	968.4636840820312	56.23918533325195	1130.859985351562	467.0813598632812	-232.6440582275391	1127.365844726562	609.7626953125	-241.4098052978516	1024.153930664062	31.82753562927246	-198.8165893554688	1072.9833984375	238.3572540283203	-228.3400421142578	1237.348388671875	32.01525497436523	-130.8203887939453	1156.495483398438	34.1661491394043	-102.2602920532227	1151.291381835938	28.13367652893066	-207.6927947998047	984.772705078125	30.11178588867188	-143.0551300048828	1127.806030273438	467.8377380371094	83.95206451416016	1064.739501953125	47.04250335693359	51.24558258056641	1131.572143554688	341.3659973144531	66.36585998535156	1237.150634765625	24.82285308837891	-27.88786506652832	1158.138061523438	32.03459548950195	-50.73579406738281	1149.160522460938	38.02450180053711	47.95452880859375	987.1215209960938	34.13873672485352	4.369486331939697	1209.633178710938	961.6503295898438	-207.4297485351562	1096.089111328125	957.6743774414062	-248.9305419921875	1090.44287109375	955.1070556640625	111.3855133056641	1165.95361328125	733.7357177734375	111.9695510864258	nan	nan	nan	nan	nan	nan	nan	nan	nan	
151	1.5	1006.062805175781	977.5596923828125	-3.835039377212524	1001.217224121094	969.9354858398438	-135.368408203125	1005.61328125	1047.102661132812	-68.10275268554688	1240.140747070312	1212.005126953125	-62.27595520019531	995.8009643554688	1150.262817382812	-74.96048736572266	1024.70361328125	1400.748168945312	-88.26555633544922	1182.269897460938	1328.478759765625	-69.74545288085938	983.0060424804688	1254.666259765625	-18.82850456237793	1016.881652832031	1360.205932617188	-190.6644897460938	1106.83154296875	1376.784301757812	-236.24951171875	1090.282348632812	1257.97509765625	-304.6407775878906	1122.205932617188	1061.117065429688	-321.7650146484375	1057.911376953125	1038.701049804688	-269.5435180664062	1222.136596679688	857.7899780273438	-256.3347778320312	1181.989624023438	836.937744140625	-325.4248962402344	1146.7412109375	957.9417724609375	-324.3901062011719	1238.012451171875	680.1987915039062	-254.3320159912109	1202.441650390625	754.1007690429688	-313.0164184570312	1250.783203125	762.9754638671875	-271.3330688476562	1072.683471679688	1385.984008789062	75.13327789306641	1057.505493164062	1321.1103515625	134.9056701660156	1078.09912109375	1060.507080078125	179.7802429199219	1053.074584960938	1045.8115234375	89.82868194580078	1218.998779296875	856.336669921875	137.7085418701172	1186.8505859375	843.2320556640625	203.3339385986328	1110.7177734375	996.807861328125	194.0048980712891	1236.728759765625	684.7722778320312	144.2300262451172	1250.324096679688	755.3361206054688	156.5845031738281	1199.562744140625	754.6829833984375	203.4760284423828	1040.782348632812	1589.275634765625	-25.5915470123291	1224.215454101562	1599.381469726562	-101.883171081543	1170.334716796875	1607.488891601562	8.740666389465332	1096.49853515625	1576.53515625	-175.4243469238281	1222.515502929688	968.6349487304688	57.10733032226562	1132.044067382812	467.2085266113281	-231.9316253662109	1128.0712890625	609.841552734375	-240.6837005615234	1024.246337890625	32.00006484985352	-198.7812042236328	1073.69873046875	238.5958862304688	-227.9837646484375	1237.410400390625	31.97486305236816	-130.7883911132812	1156.551147460938	34.19005966186523	-102.237419128418	1151.306762695312	28.15071678161621	-207.6780548095703	984.7573852539062	30.33071327209473	-143.0903167724609	1127.809814453125	467.8960876464844	84.10890197753906	1064.853881835938	47.12091445922852	51.13518905639648	1131.652221679688	341.3970031738281	66.37079620361328	1237.235107421875	24.83650588989258	-27.85971069335938	1158.2001953125	31.94083786010742	-50.82524871826172	1149.18115234375	38.04941940307617	47.87960052490234	987.1273803710938	34.24877548217773	4.18369722366333	1208.817749023438	961.9827880859375	-206.7378234863281	1095.2783203125	957.9074096679688	-248.3541717529297	1089.59716796875	955.046875	111.9665145874023	1165.422241210938	733.8861083984375	112.6268539428711	nan	nan	nan	nan	nan	nan	nan	nan	nan	
152	1.51	1004.886657714844	977.4034423828125	-3.381187438964844	1000.300170898438	969.6380615234375	-134.8978881835938	1004.128540039062	1047.313110351562	-67.61331176757812	1239.167114257812	1212.223022460938	-61.39756393432617	994.6766357421875	1150.533081054688	-74.41158294677734	1023.775817871094	1400.994506835938	-87.50264739990234	1181.24609375	1328.701416015625	-68.92485809326172	982.0297241210938	1254.885620117188	-18.0681095123291	1015.96337890625	1360.437622070312	-189.9015808105469	1105.9287109375	1376.962646484375	-235.4285278320312	1089.424560546875	1258.20166015625	-303.8325500488281	1121.335571289062	1061.392700195312	-321.1204528808594	1057.083984375	1038.877197265625	-268.9134216308594	1221.636474609375	858.23193359375	-256.0736999511719	1181.296752929688	837.2791137695312	-325.0121154785156	1145.977172851562	958.2808227539062	-323.8274536132812	1237.871704101562	680.6912231445312	-254.1967163085938	1201.943359375	754.4879760742188	-312.7175903320312	1250.428466796875	763.48095703125	-271.1855163574219	1071.595703125	1386.17822265625	75.91220855712891	1056.405151367188	1321.288208007812	135.6734466552734	1076.977661132812	1060.695068359375	180.5061340332031	1051.684204101562	1045.974243164062	90.59263610839844	1218.593017578125	857.1056518554688	137.7584075927734	1186.646606445312	843.7403564453125	203.4262237548828	1109.897583007812	997.001708984375	194.5957794189453	1237.310302734375	685.646728515625	144.0209350585938	1250.61962890625	756.287841796875	156.4557037353516	1199.937622070312	755.2718505859375	203.4573516845703	1040.353759765625	1589.695678710938	-24.78787422180176	1223.527587890625	1599.270141601562	-101.8523178100586	1170.197631835938	1607.607299804688	8.734256744384766	1095.424194335938	1576.517456054688	-174.8196105957031	1221.340698242188	968.7684936523438	58.04175186157227	1133.294921875	467.3493041992188	-231.1819915771484	1128.815185546875	609.923095703125	-239.9308624267578	1024.34326171875	32.18420028686523	-198.7471313476562	1074.447265625	238.8173675537109	-227.6036224365234	1237.4599609375	31.93377876281738	-130.7559356689453	1156.599487304688	34.20181655883789	-102.219596862793	1151.318603515625	28.16876029968262	-207.6623229980469	984.718017578125	30.5951976776123	-143.1287231445312	1127.762329101562	467.9432067871094	84.30384063720703	1064.93798828125	47.19375228881836	51.0274543762207	1131.677001953125	341.4207153320312	66.39608764648438	1237.318481445312	24.85783386230469	-27.84088516235352	1158.268188476562	31.84056091308594	-50.9216423034668	1149.18505859375	38.04655456542969	47.81816101074219	987.1276245117188	34.34254837036133	4.000398635864258	1207.932373046875	962.2896728515625	-205.9888305664062	1094.38916015625	958.1154174804688	-247.7222747802734	1088.713012695312	954.9785766601562	112.581672668457	1164.844604492188	733.996826171875	113.3467178344727	nan	nan	nan	nan	nan	nan	nan	nan	nan	
